<svg id="Layer_1" data-name="Layer 1" xmlns="http://www.w3.org/2000/svg" viewBox="0 0 512 128"><defs><style>.cls-1{fill:#3f96b4;}.cls-2{fill:#333;}</style></defs><path class="cls-1" d="M55.43,9.85l46.89,27.08V91.07L55.43,118.15,8.53,91.07V36.93L55.43,9.85m0-9.85L0,32V96l55.43,32,55.42-32V32L55.43,0Z"/><polygon class="cls-1" points="83.14 80 55.43 96 27.71 80 27.71 48 83.14 80"/><path class="cls-1" d="M55.43,0,0,32,110.85,96V32ZM83.14,80,27.71,48,55.43,32,83.14,48Z"/><path class="cls-2" d="M170.06,103.5V24.14H191.4V38h.83q2.16-7.38,7.28-11.18A19.26,19.26,0,0,1,211.29,23a33,33,0,0,1,3.57.21,24.44,24.44,0,0,1,3.36.56V43.31a28.9,28.9,0,0,0-4.29-.83,38.8,38.8,0,0,0-5-.36,17.59,17.59,0,0,0-8.66,2.09,15.48,15.48,0,0,0-6,5.81,16.5,16.5,0,0,0-2.2,8.58v44.9Z"/><path class="cls-2" d="M246.54,105A32.88,32.88,0,0,1,233,102.34a21.42,21.42,0,0,1-9.38-7.91q-3.44-5.24-3.43-13.09a23.11,23.11,0,0,1,2.43-11.11A19.69,19.69,0,0,1,229.23,63a32.22,32.22,0,0,1,9.53-4.13,71,71,0,0,1,11.24-2q6.93-.74,11.16-1.37a15.54,15.54,0,0,0,6.15-1.94,4.3,4.3,0,0,0,1.91-3.82v-.32a9.54,9.54,0,0,0-3.07-7.59q-3.07-2.69-8.71-2.69-5.94,0-9.45,2.61a12.22,12.22,0,0,0-4.65,6.54L223,46.66a27.8,27.8,0,0,1,6.1-12.52A29.49,29.49,0,0,1,240.83,26a45.08,45.08,0,0,1,16.72-2.87,51.21,51.21,0,0,1,12.68,1.55A33.56,33.56,0,0,1,281,29.46a23.59,23.59,0,0,1,7.47,8.34A25.43,25.43,0,0,1,291.24,50V103.5H270.36v-11h-.62A21.83,21.83,0,0,1,264.62,99a23.17,23.17,0,0,1-7.69,4.4A31.66,31.66,0,0,1,246.54,105Zm6.31-15.19a18.32,18.32,0,0,0,8.57-1.94,15,15,0,0,0,5.84-5.24,13.62,13.62,0,0,0,2.12-7.49V66.71a11.13,11.13,0,0,1-2.82,1.22,40.49,40.49,0,0,1-4,1c-1.48.29-3,.55-4.45.77l-4,.6a27.08,27.08,0,0,0-6.77,1.81,10.84,10.84,0,0,0-4.5,3.33,8.27,8.27,0,0,0-1.6,5.19,7.89,7.89,0,0,0,3.28,6.85A14,14,0,0,0,252.85,89.81Z"/><path class="cls-2" d="M349.05,69.71V24.14h22V103.5H349.93V89.09h-.83a23.5,23.5,0,0,1-8.91,11.21A26.39,26.39,0,0,1,325,104.54a26.76,26.76,0,0,1-14-3.62,24.67,24.67,0,0,1-9.43-10.28,35.41,35.41,0,0,1-3.44-16V24.14h22v46.6q.06,7,3.77,11.11a12.85,12.85,0,0,0,10,4.08,15.69,15.69,0,0,0,7.44-1.83,14.15,14.15,0,0,0,5.6-5.45A17,17,0,0,0,349.05,69.71Z"/><path class="cls-2" d="M379.16,103.5V23.1h22v80.4Zm19.95-22.84.05-26.4h3.2l25.43-30.12h25.26L418.9,64h-5.22Zm29.66,22.84L405.41,68.93l14.68-15.55,34.46,50.12Z"/><path class="cls-2" d="M459.61,103.5V24.14H481V38h.82q2.18-7.38,7.29-11.18A19.26,19.26,0,0,1,500.84,23a32.65,32.65,0,0,1,3.56.21,23.93,23.93,0,0,1,3.36.56V43.31a28.38,28.38,0,0,0-4.29-.83,38.55,38.55,0,0,0-5-.36,17.55,17.55,0,0,0-8.65,2.09,15.58,15.58,0,0,0-6,5.81,16.59,16.59,0,0,0-2.19,8.58v44.9Z"/></svg>